<svg xmlns="http://www.w3.org/2000/svg" version="1.1" xmlns:xlink="http://www.w3.org/1999/xlink" xmlns:svgjs="http://svgjs.dev/svgjs" width="1500" height="507" viewBox="0 0 1500 507"><g transform="matrix(1,0,0,1,-0.9090909090909918,-0.6571415570815589)"><svg viewBox="0 0 396 134" data-background-color="#755bb4" preserveAspectRatio="xMidYMid meet" height="507" width="1500" xmlns="http://www.w3.org/2000/svg" xmlns:xlink="http://www.w3.org/1999/xlink"><g id="tight-bounds" transform="matrix(1,0,0,1,0.2400000000000091,0.17368238392293733)"><svg viewBox="0 0 395.52 133.6526352321541" height="133.6526352321541" width="395.52"><g><svg viewBox="0 0 723.348936137859 244.43135999999998" height="133.6526352321541" width="395.52"><g transform="matrix(1,0,0,1,0,23.873563976225967)"><svg viewBox="0 0 395.52 196.68423204754805" height="196.68423204754805" width="395.52"><g id="textblocktransform"><svg viewBox="0 0 395.52 196.68423204754805" height="196.68423204754805" width="395.52" id="textblock"><g><svg viewBox="0 0 395.52 141.306318537859" height="141.306318537859" width="395.52"><g transform="matrix(1,0,0,1,0,0)"><svg width="395.52" viewBox="4.64 -39.84 112.2 40.080000000000005" height="141.306318537859" data-palette-color="#bb84e8"><path d="M27.15-31.54L10.6-31.54 10.6-20.21 25.63-20.21 25.63-16.21 10.6-16.21 10.6 0 4.64 0 4.64-35.99 27.15-35.99 27.15-31.54ZM53.02-14.89L53.02-8.54 53.02-8.15Q53.02-7.76 53.07-7.01 53.12-6.25 53.27-5.47 53.42-4.69 53.73-4.05 54.05-3.42 54.59-3.22L54.59-3.22 53.02 0.05Q52.39 0.05 51.68-0.24 50.97-0.54 50.31-1.07 49.66-1.61 49.19-2.27 48.73-2.93 48.48-3.71L48.48-3.71Q48.14-2.88 47.29-2.17 46.43-1.46 45.36-0.9 44.28-0.34 43.04-0.05 41.79 0.24 40.72 0.24L40.72 0.24Q39.06 0.24 37.52-0.2 35.98-0.63 34.81-1.61 33.64-2.59 32.98-4.2 32.32-5.81 32.32-8.15L32.32-8.15Q32.32-10.4 33.27-12.04 34.23-13.67 35.72-14.72 37.2-15.77 39.11-16.28 41.01-16.8 42.97-16.8L42.97-16.8 47.12-16.8Q47.12-19.19 46.87-20.61 46.63-22.02 46.04-22.68 45.46-23.34 44.6-23.51 43.75-23.68 42.58-23.68L42.58-23.68Q41.5-23.68 40.55-23.41 39.6-23.14 38.79-22.78 37.99-22.41 37.38-21.97 36.77-21.53 36.47-21.29L36.47-21.29 34.27-24.66Q34.76-25.2 35.74-25.76 36.72-26.32 37.99-26.76 39.26-27.2 40.74-27.47 42.23-27.73 43.85-27.73L43.85-27.73Q45.31-27.73 46.7-27.44 48.09-27.15 49.24-26.46 50.39-25.78 51.24-24.63 52.1-23.49 52.44-21.78L52.44-21.78Q52.78-20.07 52.9-18.33 53.02-16.6 53.02-14.89L53.02-14.89ZM47.17-6.59L47.17-13.33 44.04-13.33Q43.06-13.33 41.99-13.13 40.92-12.94 39.99-12.4 39.06-11.87 38.45-10.86 37.84-9.86 37.84-8.3L37.84-8.3Q37.84-5.86 38.94-4.79 40.04-3.71 42.14-3.71L42.14-3.71Q43.6-3.71 44.94-4.49 46.29-5.27 47.17-6.59L47.17-6.59ZM77.83-27.73L77.83-21.58Q76.46-21.97 74.51-22.02L74.51-22.02Q72.75-22.02 71.02-21.61 69.28-21.19 68.26-20.21L68.26-20.21 68.26-9.77 68.26-9.67 68.26 0 62.35 0 62.35-27.54 67.62-27.54 68.26-24.71Q68.99-25.44 69.79-26.03 70.6-26.61 71.67-26.98 72.75-27.34 74.21-27.54 75.68-27.73 77.83-27.73L77.83-27.73ZM90.03-27.54L90.03 0 84.07 0 84.07-27.54 90.03-27.54ZM90.57-36.33L90.57-36.33Q90.57-34.86 89.54-33.86 88.52-32.86 87.05-32.86L87.05-32.86Q85.59-32.86 84.59-33.89 83.59-34.91 83.59-36.33L83.59-36.33Q83.59-37.79 84.61-38.82 85.64-39.84 87.05-39.84L87.05-39.84Q88.52-39.84 89.54-38.82 90.57-37.79 90.57-36.33ZM97.79-2.2L97.79-2.2 100.28-6.15Q101.26-5.47 102.6-4.88 103.95-4.3 106-4.3L106-4.3Q108.68-4.3 110.2-5.13 111.71-5.96 111.71-7.57L111.71-7.57Q111.71-8.74 110.83-9.45 109.95-10.16 108.61-10.67 107.27-11.18 105.73-11.65 104.19-12.11 102.87-12.79L102.87-12.79Q100.28-14.16 98.99-15.67 97.7-17.19 97.7-19.68L97.7-19.68Q97.7-21.73 98.55-23.29 99.4-24.85 100.77-25.9 102.14-26.95 103.9-27.49 105.65-28.03 107.46-28.03L107.46-28.03Q109.9-28.03 111.95-27.51 114-27 115.91-25.78L115.91-25.78 114-21.73Q112.54-22.56 110.83-22.88 109.12-23.19 107.46-23.19L107.46-23.19Q105.65-23.19 104.6-22.39 103.55-21.58 103.55-19.87L103.55-19.87Q103.55-18.55 104.51-17.8 105.46-17.04 106.97-16.46 108.49-15.87 110.2-15.28 111.9-14.7 113.39-13.79 114.88-12.89 115.86-11.52 116.84-10.16 116.84-8.01L116.84-8.01Q116.84-5.91 116.01-4.35 115.18-2.78 113.76-1.76 112.34-0.73 110.49-0.24 108.63 0.24 106.53 0.24L106.53 0.24Q105.26 0.24 104.19 0.17 103.12 0.1 102.09-0.15 101.06-0.39 100.04-0.88 99.01-1.37 97.79-2.2Z" opacity="1" transform="matrix(1,0,0,1,0,0)" fill="#bb84e8" class="wordmark-text-0" data-fill-palette-color="primary" id="text-0"></path></svg></g></svg></g><g transform="matrix(1,0,0,1,163.31020800000002,174.6653489930026)"><svg viewBox="0 0 232.20979199999996 22.01888305454545" height="22.01888305454545" width="232.20979199999996"><g transform="matrix(1,0,0,1,0,0)"><svg width="232.20979199999996" viewBox="2 -31.7 395.94 37.55" height="22.01888305454545" data-palette-color="#35185a"><path d="M7.15 0.35L7.15 0.35Q6 0.35 4.83 0.03 3.65-0.3 2.83-1.48 2-2.65 2-5.15L2-5.15 2-7.55Q2-10.05 3.53-11.58 5.05-13.1 7.7-14.3L7.7-14.3Q9.4-15.15 10.48-15.8 11.55-16.45 12.1-17.25 12.65-18.05 12.65-19.4L12.65-19.4 12.65-20.45Q12.65-21.65 12.15-22.3 11.65-22.95 10.83-23.2 10-23.45 9.1-23.45L9.1-23.45Q6.85-23.45 6.15-22.23 5.45-21 5.45-18.6L5.45-18.6 5.45-16.5 2.6-16.5 2.6-18.9Q2.6-20.75 3.1-22.18 3.6-23.6 5-24.43 6.4-25.25 9.1-25.25L9.1-25.25Q11.95-25.25 13.38-24.6 14.8-23.95 15.28-22.75 15.75-21.55 15.75-19.9L15.75-19.9 15.75 0 12.7 0 12.65-3.1Q12.05-1.4 10.5-0.53 8.95 0.35 7.15 0.35ZM8.3-1.75L8.3-1.75Q10.55-1.75 11.58-3.35 12.6-4.95 12.6-7.6L12.6-7.6 12.6-15.5Q12.1-14.7 10.95-14.05 9.8-13.4 8.6-12.75L8.6-12.75Q6.9-11.75 5.98-10.68 5.05-9.6 5.05-7.7L5.05-7.7 5.05-5.75Q5.05-3.95 5.55-3.1 6.05-2.25 6.8-2 7.55-1.75 8.3-1.75ZM26.6 0.35L26.6 0.35Q23.9 0.35 22.4-0.33 20.9-1 20.3-2.48 19.7-3.95 19.7-6.4L19.7-6.4 19.7-8.55 22.85-8.55 22.85-5.7Q22.85-3.35 23.65-2.45 24.45-1.55 26.55-1.55L26.55-1.55Q28.4-1.55 29.27-2.45 30.15-3.35 30.15-5.5L30.15-5.5 30.15-6.9Q30.15-8.05 29.8-8.88 29.45-9.7 28.47-10.4 27.5-11.1 25.75-11.8L25.75-11.8Q24.1-12.45 22.85-13.2 21.6-13.95 20.87-15.1 20.15-16.25 20.15-18.05L20.15-18.05 20.15-19.55Q20.15-22.2 21.67-23.68 23.2-25.15 26.85-25.15L26.85-25.15Q29.25-25.15 30.67-24.5 32.1-23.85 32.77-22.4 33.45-20.95 33.45-18.65L33.45-18.65 33.45-16.55 30.4-16.55 30.4-18.95Q30.4-21.45 29.55-22.38 28.7-23.3 26.85-23.3L26.85-23.3Q24.75-23.3 24.02-22.3 23.3-21.3 23.3-19.8L23.3-19.8 23.3-18.45Q23.3-17.05 23.92-16.15 24.55-15.25 25.7-14.65 26.85-14.05 28.45-13.4L28.45-13.4Q29.9-12.8 31.02-12.13 32.15-11.45 32.8-10.3 33.45-9.15 33.45-7.15L33.45-7.15 33.45-6Q33.45-4 32.82-2.58 32.2-1.15 30.7-0.4 29.2 0.35 26.6 0.35ZM41 5.8L37.95 5.8 37.95-24.75 40.84-24.75 40.95-22.55Q41.4-23.6 42.4-24.35 43.4-25.1 45.7-25.1L45.7-25.1Q48.05-25.1 49.3-24.3 50.55-23.5 51.05-22.1 51.55-20.7 51.55-18.85L51.55-18.85 51.55-6.65Q51.55-4.6 51.09-3 50.65-1.4 49.4-0.53 48.15 0.35 45.7 0.35L45.7 0.35Q43.8 0.35 42.67-0.25 41.55-0.85 41-1.75L41-1.75 41 5.8ZM44.75-1.55L44.75-1.55Q46.15-1.55 46.9-1.95 47.65-2.35 48-3.03 48.34-3.7 48.4-4.53 48.45-5.35 48.45-6.3L48.45-6.3 48.45-18.35Q48.45-19.3 48.4-20.13 48.34-20.95 48-21.65 47.65-22.35 46.9-22.75 46.15-23.15 44.75-23.15L44.75-23.15Q43.34-23.15 42.59-22.65 41.84-22.15 41.5-21.33 41.15-20.5 41.09-19.55 41.05-18.6 41.05-17.75L41.05-17.75 41.05-5.95Q41.05-4.75 41.27-3.73 41.5-2.7 42.27-2.13 43.05-1.55 44.75-1.55ZM59.24 0L56.19 0 56.19-24.75 59.24-24.75 59.24 0ZM57.74-27.8L57.74-27.8Q56.99-27.8 56.47-28.33 55.94-28.85 55.94-29.55L55.94-29.55Q55.94-30.3 56.47-30.78 56.99-31.25 57.74-31.25L57.74-31.25Q58.44-31.25 58.99-30.78 59.54-30.3 59.54-29.55L59.54-29.55Q59.54-28.85 58.99-28.33 58.44-27.8 57.74-27.8ZM67.64 0L64.54 0 64.54-24.75 67.14-24.75 67.49-22.1Q68.04-23.5 69.29-24.1 70.54-24.7 71.79-24.85L71.79-24.85Q73.19-25.15 74.49-24.9L74.49-24.9 74.49-22.45Q74.29-22.5 73.79-22.55 73.29-22.6 72.72-22.6 72.14-22.6 71.64-22.4L71.64-22.4Q69.94-22.2 68.79-21.18 67.64-20.15 67.64-18.4L67.64-18.4 67.64 0ZM80.24 0L77.19 0 77.19-24.75 80.24-24.75 80.24 0ZM78.74-27.8L78.74-27.8Q77.99-27.8 77.46-28.33 76.94-28.85 76.94-29.55L76.94-29.55Q76.94-30.3 77.46-30.78 77.99-31.25 78.74-31.25L78.74-31.25Q79.44-31.25 79.99-30.78 80.54-30.3 80.54-29.55L80.54-29.55Q80.54-28.85 79.99-28.33 79.44-27.8 78.74-27.8ZM88.64 0L85.54 0 85.54-24.75 88.09-24.75 88.48-22.1Q88.89-23.6 90.34-24.4 91.79-25.2 93.34-25.2L93.34-25.2Q95.99-25.2 97.21-24.28 98.44-23.35 98.79-21.88 99.14-20.4 99.14-18.65L99.14-18.65 99.14 0 96.04 0 96.04-18.2Q96.04-19.1 95.99-19.95 95.94-20.8 95.61-21.48 95.29-22.15 94.54-22.55 93.79-22.95 92.34-22.95L92.34-22.95Q91.09-22.95 90.31-22.48 89.54-22 89.16-21.38 88.79-20.75 88.64-20.2L88.64-20.2 88.64 0ZM109.73 5.85L109.73 5.85Q109.18 5.85 108.43 5.8 107.68 5.75 106.96 5.7 106.23 5.65 105.71 5.58 105.18 5.5 105.03 5.45L105.03 5.45 105.03 3.65Q105.63 3.7 106.76 3.85 107.88 4 108.78 4L108.78 4Q109.48 4 110.33 3.9 111.18 3.8 112.01 3.35 112.83 2.9 113.36 1.85 113.88 0.8 113.88-1.05L113.88-1.05 113.88-4.45Q113.58-3.5 112.96-2.75 112.33-2 111.33-1.58 110.33-1.15 108.88-1.15L108.88-1.15Q107.93-1.15 106.96-1.35 105.98-1.55 105.18-2.18 104.38-2.8 103.91-4.13 103.43-5.45 103.43-7.7L103.43-7.7 103.43-19.05Q103.43-22.35 104.73-23.8 106.03-25.25 108.93-25.25L108.93-25.25Q110.23-25.25 111.31-24.9 112.38-24.55 113.13-23.85 113.88-23.15 114.28-22.1L114.28-22.1 113.73-22.1 114.23-24.75 116.93-24.75 116.93-2.1Q116.93-0.15 116.46 1.33 115.98 2.8 115.08 3.83 114.18 4.85 112.83 5.35 111.48 5.85 109.73 5.85ZM109.98-3.15L109.98-3.15Q111.63-3.15 112.46-3.98 113.28-4.8 113.56-6.08 113.83-7.35 113.83-8.65L113.83-8.65 113.83-20.75Q113.68-21.2 113.26-21.75 112.83-22.3 112.06-22.7 111.28-23.1 109.98-23.1L109.98-23.1Q108.13-23.1 107.33-22.2 106.53-21.3 106.53-18.9L106.53-18.9 106.53-6.95Q106.53-5.65 106.88-4.85 107.23-4.05 107.81-3.7 108.38-3.35 108.98-3.25 109.58-3.15 109.98-3.15ZM137.13 0.35L137.13 0.35Q134.43 0.35 132.93-0.33 131.43-1 130.83-2.48 130.23-3.95 130.23-6.4L130.23-6.4 130.23-8.55 133.38-8.55 133.38-5.7Q133.38-3.35 134.18-2.45 134.98-1.55 137.08-1.55L137.08-1.55Q138.93-1.55 139.8-2.45 140.68-3.35 140.68-5.5L140.68-5.5 140.68-6.9Q140.68-8.05 140.33-8.88 139.98-9.7 139-10.4 138.03-11.1 136.28-11.8L136.28-11.8Q134.63-12.45 133.38-13.2 132.13-13.95 131.4-15.1 130.68-16.25 130.68-18.05L130.68-18.05 130.68-19.55Q130.68-22.2 132.2-23.68 133.73-25.15 137.38-25.15L137.38-25.15Q139.78-25.15 141.2-24.5 142.63-23.85 143.3-22.4 143.98-20.95 143.98-18.65L143.98-18.65 143.98-16.55 140.93-16.55 140.93-18.95Q140.93-21.45 140.08-22.38 139.23-23.3 137.38-23.3L137.38-23.3Q135.28-23.3 134.55-22.3 133.83-21.3 133.83-19.8L133.83-19.8 133.83-18.45Q133.83-17.05 134.45-16.15 135.08-15.25 136.23-14.65 137.38-14.05 138.98-13.4L138.98-13.4Q140.43-12.8 141.55-12.13 142.68-11.45 143.33-10.3 143.98-9.15 143.98-7.15L143.98-7.15 143.98-6Q143.98-4 143.35-2.58 142.73-1.15 141.23-0.4 139.73 0.35 137.13 0.35ZM154.68 0.35L154.68 0.35Q152.38 0.35 150.85-0.28 149.33-0.9 148.6-2.5 147.88-4.1 147.88-6.9L147.88-6.9 147.88-18.45Q147.88-22.05 149.45-23.6 151.03-25.15 154.68-25.15L154.68-25.15Q158.33-25.15 159.9-23.65 161.48-22.15 161.48-18.45L161.48-18.45 161.48-6.9Q161.48-4.1 160.78-2.53 160.08-0.95 158.58-0.3 157.08 0.35 154.68 0.35ZM154.68-1.6L154.68-1.6Q156.68-1.6 157.53-2.6 158.38-3.6 158.38-6.25L158.38-6.25 158.38-18.6Q158.38-21.05 157.58-22.13 156.78-23.2 154.68-23.2L154.68-23.2Q152.73-23.2 151.85-22.18 150.98-21.15 150.98-18.6L150.98-18.6 150.98-6.25Q150.98-3.65 151.85-2.63 152.73-1.6 154.68-1.6ZM169.22 0L166.17 0 166.17-21.85 164.62-21.85 164.62-23.8 166.17-23.8 166.17-26.8Q166.17-28.15 166.5-29.1 166.82-30.05 167.42-30.63 168.02-31.2 168.85-31.45 169.67-31.7 170.67-31.7L170.67-31.7Q171.47-31.7 172.3-31.68 173.12-31.65 173.82-31.58 174.52-31.5 174.82-31.5L174.82-31.5 174.82-29.75Q174.27-29.85 173.52-29.93 172.77-30 171.72-30L171.72-30Q170.47-30 169.85-29.28 169.22-28.55 169.22-26.7L169.22-26.7 169.22-23.8 174.82-23.8 174.82-21.85 169.22-21.85 169.22 0ZM181.62 0.05L181.62 0.05Q180.52 0.05 179.62-0.2 178.72-0.45 178.07-1.03 177.42-1.6 177.07-2.53 176.72-3.45 176.72-4.85L176.72-4.85 176.72-22.8 174.52-22.8 174.52-24.4 176.92-24.75 177.47-29.4 179.82-29.4 179.82-24.75 185.17-24.75 185.17-22.8 179.82-22.8 179.82-5.4Q179.82-4 180.32-3.05 180.82-2.1 182.52-2.1L182.52-2.1Q183.22-2.1 184.02-2.18 184.82-2.25 185.17-2.25L185.17-2.25 185.17-0.25Q184.77-0.25 183.77-0.1 182.77 0.05 181.62 0.05ZM195.37 0L191.82 0 186.27-24.75 189.27-24.75 193.62-3.95 197.87-24.75 200.82-24.75 205.32-3.95 209.37-24.75 212.32-24.75 206.97 0 203.42 0 199.32-18.6 195.37 0ZM220.07 0.35L220.07 0.35Q218.92 0.35 217.74 0.03 216.57-0.3 215.74-1.48 214.92-2.65 214.92-5.15L214.92-5.15 214.92-7.55Q214.92-10.05 216.44-11.58 217.97-13.1 220.62-14.3L220.62-14.3Q222.32-15.15 223.39-15.8 224.47-16.45 225.02-17.25 225.57-18.05 225.57-19.4L225.57-19.4 225.57-20.45Q225.57-21.65 225.07-22.3 224.57-22.95 223.74-23.2 222.92-23.45 222.02-23.45L222.02-23.45Q219.77-23.45 219.07-22.23 218.37-21 218.37-18.6L218.37-18.6 218.37-16.5 215.52-16.5 215.52-18.9Q215.52-20.75 216.02-22.18 216.52-23.6 217.92-24.43 219.32-25.25 222.02-25.25L222.02-25.25Q224.87-25.25 226.29-24.6 227.72-23.95 228.19-22.75 228.67-21.55 228.67-19.9L228.67-19.9 228.67 0 225.62 0 225.57-3.1Q224.97-1.4 223.42-0.53 221.87 0.35 220.07 0.35ZM221.22-1.75L221.22-1.75Q223.47-1.75 224.49-3.35 225.52-4.95 225.52-7.6L225.52-7.6 225.52-15.5Q225.02-14.7 223.87-14.05 222.72-13.4 221.52-12.75L221.52-12.75Q219.82-11.75 218.89-10.68 217.97-9.6 217.97-7.7L217.97-7.7 217.97-5.75Q217.97-3.95 218.47-3.1 218.97-2.25 219.72-2 220.47-1.75 221.22-1.75ZM236.61 0L233.51 0 233.51-24.75 236.11-24.75 236.46-22.1Q237.01-23.5 238.26-24.1 239.51-24.7 240.76-24.85L240.76-24.85Q242.16-25.15 243.46-24.9L243.46-24.9 243.46-22.45Q243.26-22.5 242.76-22.55 242.26-22.6 241.69-22.6 241.11-22.6 240.61-22.4L240.61-22.4Q238.91-22.2 237.76-21.18 236.61-20.15 236.61-18.4L236.61-18.4 236.61 0ZM252.56 0.45L252.56 0.45Q250.06 0.45 248.51-0.13 246.96-0.7 246.26-2.25 245.56-3.8 245.56-6.75L245.56-6.75 245.56-19.1Q245.56-22.6 247.14-23.9 248.71-25.2 252.36-25.2L252.36-25.2Q255.91-25.2 257.49-23.9 259.06-22.6 259.06-19.1L259.06-19.1 259.06-12.7 248.66-12.7 248.66-5.7Q248.66-3.3 249.41-2.38 250.16-1.45 252.46-1.45L252.46-1.45Q254.56-1.45 255.26-2.35 255.96-3.25 255.96-5.7L255.96-5.7 255.96-8.9 259.06-8.9 259.06-6.8Q259.06-3.9 258.36-2.33 257.66-0.75 256.24-0.15 254.81 0.45 252.56 0.45ZM248.66-19.2L248.66-14.3 255.96-14.3 255.96-19.2Q255.96-21.3 255.26-22.25 254.56-23.2 252.36-23.2L252.36-23.2Q250.16-23.2 249.41-22.25 248.66-21.3 248.66-19.2L248.66-19.2ZM279.16 0.45L279.16 0.45Q276.66 0.45 275.11-0.13 273.56-0.7 272.86-2.25 272.16-3.8 272.16-6.75L272.16-6.75 272.16-19.1Q272.16-22.6 273.73-23.9 275.31-25.2 278.96-25.2L278.96-25.2Q282.5-25.2 284.08-23.9 285.66-22.6 285.66-19.1L285.66-19.1 285.66-12.7 275.25-12.7 275.25-5.7Q275.25-3.3 276-2.38 276.75-1.45 279.06-1.45L279.06-1.45Q281.16-1.45 281.86-2.35 282.56-3.25 282.56-5.7L282.56-5.7 282.56-8.9 285.66-8.9 285.66-6.8Q285.66-3.9 284.96-2.33 284.25-0.75 282.83-0.15 281.41 0.45 279.16 0.45ZM275.25-19.2L275.25-14.3 282.56-14.3 282.56-19.2Q282.56-21.3 281.86-22.25 281.16-23.2 278.96-23.2L278.96-23.2Q276.75-23.2 276-22.25 275.25-21.3 275.25-19.2L275.25-19.2ZM293.2 0L290.1 0 290.1-24.75 292.65-24.75 293.05-22.1Q293.45-23.6 294.9-24.4 296.35-25.2 297.9-25.2L297.9-25.2Q300.55-25.2 301.78-24.28 303-23.35 303.35-21.88 303.7-20.4 303.7-18.65L303.7-18.65 303.7 0 300.6 0 300.6-18.2Q300.6-19.1 300.55-19.95 300.5-20.8 300.18-21.48 299.85-22.15 299.1-22.55 298.35-22.95 296.9-22.95L296.9-22.95Q295.65-22.95 294.88-22.48 294.1-22 293.73-21.38 293.35-20.75 293.2-20.2L293.2-20.2 293.2 0ZM314.3 5.85L314.3 5.85Q313.75 5.85 313 5.8 312.25 5.75 311.53 5.7 310.8 5.65 310.28 5.58 309.75 5.5 309.6 5.45L309.6 5.45 309.6 3.65Q310.2 3.7 311.33 3.85 312.45 4 313.35 4L313.35 4Q314.05 4 314.9 3.9 315.75 3.8 316.58 3.35 317.4 2.9 317.93 1.85 318.45 0.8 318.45-1.05L318.45-1.05 318.45-4.45Q318.15-3.5 317.53-2.75 316.9-2 315.9-1.58 314.9-1.15 313.45-1.15L313.45-1.15Q312.5-1.15 311.53-1.35 310.55-1.55 309.75-2.18 308.95-2.8 308.48-4.13 308-5.45 308-7.7L308-7.7 308-19.05Q308-22.35 309.3-23.8 310.6-25.25 313.5-25.25L313.5-25.25Q314.8-25.25 315.88-24.9 316.95-24.55 317.7-23.85 318.45-23.15 318.85-22.1L318.85-22.1 318.3-22.1 318.8-24.75 321.5-24.75 321.5-2.1Q321.5-0.15 321.03 1.33 320.55 2.8 319.65 3.83 318.75 4.85 317.4 5.35 316.05 5.85 314.3 5.85ZM314.55-3.15L314.55-3.15Q316.2-3.15 317.03-3.98 317.85-4.8 318.13-6.08 318.4-7.35 318.4-8.65L318.4-8.65 318.4-20.75Q318.25-21.2 317.83-21.75 317.4-22.3 316.63-22.7 315.85-23.1 314.55-23.1L314.55-23.1Q312.7-23.1 311.9-22.2 311.1-21.3 311.1-18.9L311.1-18.9 311.1-6.95Q311.1-5.65 311.45-4.85 311.8-4.05 312.38-3.7 312.95-3.35 313.55-3.25 314.15-3.15 314.55-3.15ZM329.5 0L326.45 0 326.45-24.75 329.5-24.75 329.5 0ZM328-27.8L328-27.8Q327.25-27.8 326.72-28.33 326.2-28.85 326.2-29.55L326.2-29.55Q326.2-30.3 326.72-30.78 327.25-31.25 328-31.25L328-31.25Q328.7-31.25 329.25-30.78 329.8-30.3 329.8-29.55L329.8-29.55Q329.8-28.85 329.25-28.33 328.7-27.8 328-27.8ZM337.9 0L334.8 0 334.8-24.75 337.35-24.75 337.75-22.1Q338.15-23.6 339.6-24.4 341.05-25.2 342.6-25.2L342.6-25.2Q345.25-25.2 346.47-24.28 347.7-23.35 348.05-21.88 348.4-20.4 348.4-18.65L348.4-18.65 348.4 0 345.3 0 345.3-18.2Q345.3-19.1 345.25-19.95 345.2-20.8 344.87-21.48 344.55-22.15 343.8-22.55 343.05-22.95 341.6-22.95L341.6-22.95Q340.35-22.95 339.57-22.48 338.8-22 338.42-21.38 338.05-20.75 337.9-20.2L337.9-20.2 337.9 0ZM359.69 0.45L359.69 0.45Q357.19 0.45 355.64-0.13 354.09-0.7 353.39-2.25 352.69-3.8 352.69-6.75L352.69-6.75 352.69-19.1Q352.69-22.6 354.27-23.9 355.84-25.2 359.49-25.2L359.49-25.2Q363.04-25.2 364.62-23.9 366.19-22.6 366.19-19.1L366.19-19.1 366.19-12.7 355.79-12.7 355.79-5.7Q355.79-3.3 356.54-2.38 357.29-1.45 359.59-1.45L359.59-1.45Q361.69-1.45 362.39-2.35 363.09-3.25 363.09-5.7L363.09-5.7 363.09-8.9 366.19-8.9 366.19-6.8Q366.19-3.9 365.49-2.33 364.79-0.75 363.37-0.15 361.94 0.45 359.69 0.45ZM355.79-19.2L355.79-14.3 363.09-14.3 363.09-19.2Q363.09-21.3 362.39-22.25 361.69-23.2 359.49-23.2L359.49-23.2Q357.29-23.2 356.54-22.25 355.79-21.3 355.79-19.2L355.79-19.2ZM377.04 0.45L377.04 0.45Q374.54 0.45 372.99-0.13 371.44-0.7 370.74-2.25 370.04-3.8 370.04-6.75L370.04-6.75 370.04-19.1Q370.04-22.6 371.62-23.9 373.19-25.2 376.84-25.2L376.84-25.2Q380.39-25.2 381.97-23.9 383.54-22.6 383.54-19.1L383.54-19.1 383.54-12.7 373.14-12.7 373.14-5.7Q373.14-3.3 373.89-2.38 374.64-1.45 376.94-1.45L376.94-1.45Q379.04-1.45 379.74-2.35 380.44-3.25 380.44-5.7L380.44-5.7 380.44-8.9 383.54-8.9 383.54-6.8Q383.54-3.9 382.84-2.33 382.14-0.75 380.72-0.15 379.29 0.45 377.04 0.45ZM373.14-19.2L373.14-14.3 380.44-14.3 380.44-19.2Q380.44-21.3 379.74-22.25 379.04-23.2 376.84-23.2L376.84-23.2Q374.64-23.2 373.89-22.25 373.14-21.3 373.14-19.2L373.14-19.2ZM391.09 0L387.99 0 387.99-24.75 390.59-24.75 390.94-22.1Q391.49-23.5 392.74-24.1 393.99-24.7 395.24-24.85L395.24-24.85Q396.64-25.15 397.94-24.9L397.94-24.9 397.94-22.45Q397.74-22.5 397.24-22.55 396.74-22.6 396.16-22.6 395.59-22.6 395.09-22.4L395.09-22.4Q393.39-22.2 392.24-21.18 391.09-20.15 391.09-18.4L391.09-18.4 391.09 0Z" opacity="1" transform="matrix(1,0,0,1,0,0)" fill="#35185a" class="slogan-text-1" data-fill-palette-color="secondary" id="text-1"></path></svg></g></svg></g></svg></g></svg></g><g transform="matrix(1,0,0,1,478.917576137859,0)"><svg viewBox="0 0 244.43135999999998 244.43135999999998" height="244.43135999999998" width="244.43135999999998"><g><svg viewBox="0 0 244.43135999999998 244.43135999999998" height="244.43135999999998" width="244.43135999999998"><g transform="matrix(1,0,0,1,64.60265593644992,79.24682578937006)"><svg viewBox="0 0 115.22604812710014 85.93770842125986" height="85.93770842125986" width="115.22604812710014"><g><svg xmlns="http://www.w3.org/2000/svg" xmlns:xlink="http://www.w3.org/1999/xlink" version="1.1" x="0" y="0" viewBox="14 19 80 59.66547308918638" enable-background="new 0 0 108.121 99.421" xml:space="preserve" id="dxe-0" width="115.22604812710014" height="85.93770842125986" class="icon-dxe-0" data-fill-palette-color="accent"><g fill="#35185a" data-fill-palette-color="accent"></g><g fill="#35185a" data-fill-palette-color="accent"></g><g fill="#35185a" data-fill-palette-color="accent"></g><g fill="#35185a" data-fill-palette-color="accent"></g><path d="M92 19H16A2 2 0 0 0 14 21V66A2 2 0 0 0 16 68H92A2 2 0 0 0 94 66V21A2 2 0 0 0 92 19M90 60H18V23H90z" fill="#35185a" data-fill-palette-color="accent"></path><rect x="45" y="66" width="18" height="12" fill="#35185a" data-fill-palette-color="accent"></rect><rect x="38" y="76" width="32" height="3" fill="#35185a" data-fill-palette-color="accent"></rect><g fill="#35185a" data-fill-palette-color="accent"><path d="M46.324 50.387L31.583 43.84V41.332L46.324 33.955V38.285L37.284 42.411 46.324 46.085z" fill="#35185a" data-fill-palette-color="accent"></path><path d="M60.569 31.359L52.622 53.274H47.577L55.524 31.359z" fill="#35185a" data-fill-palette-color="accent"></path><path d="M61.677 46.085L70.718 42.411 61.677 38.285V33.955L76.418 41.332V43.84L61.677 50.386z" fill="#35185a" data-fill-palette-color="accent"></path></g></svg></g></svg></g><g id="text-0"><path d="M21.931 44.139l-10.691 24.381 16.683 7.315 9.711-22.147 5.902 2.588-9.711 22.147 23.869 10.466-3.845 8.769-52.998-23.238 14.535-33.151z" fill="#35185a" data-fill-palette-color="accent"></path><path d="M95.675 22.976l4.953 8.923 0.306 0.551c0.204 0.367 0.524 0.895 0.96 1.583 0.439 0.679 0.93 1.348 1.474 2.007 0.541 0.653 1.128 1.195 1.763 1.626 0.625 0.428 1.24 0.594 1.846 0.498v0l0.36 5.822c-0.598 0.332-1.307 0.543-2.125 0.633-0.815 0.096-1.67 0.063-2.566-0.099-0.896-0.162-1.734-0.429-2.515-0.801-0.775-0.376-1.481-0.867-2.12-1.474v0c0.111 0.954-0.049 1.984-0.481 3.092-0.432 1.108-1.005 2.205-1.719 3.291-0.715 1.086-1.58 2.09-2.596 3.01-1.013 0.926-2.023 1.669-3.03 2.228v0c-1.558 0.865-3.172 1.49-4.842 1.874-1.667 0.39-3.306 0.432-4.918 0.126-1.603-0.304-3.131-1.041-4.586-2.21-1.461-1.166-2.801-2.848-4.021-5.046v0c-1.167-2.103-1.73-4.171-1.687-6.202 0.043-2.031 0.488-3.925 1.334-5.681 0.852-1.76 2.037-3.374 3.554-4.844 1.517-1.47 3.191-2.713 5.022-3.729v0l5.839-3.241c-1.246-2.246-2.353-3.968-3.321-5.167-0.962-1.202-1.889-1.959-2.782-2.269-0.893-0.31-1.784-0.324-2.673-0.04-0.889 0.284-1.881 0.73-2.977 1.339v0c-1.007 0.559-1.889 1.211-2.646 1.957-0.753 0.751-1.411 1.508-1.972 2.269-0.568 0.765-1.022 1.509-1.365 2.233-0.345 0.734-0.591 1.289-0.738 1.666v0l-5.722-3.021c0.183-0.76 0.584-1.657 1.203-2.691 0.629-1.031 1.421-2.083 2.376-3.155 0.964-1.07 2.075-2.12 3.332-3.151 1.254-1.022 2.637-1.952 4.147-2.791v0c1.375-0.763 2.789-1.37 4.245-1.821 1.455-0.451 2.899-0.656 4.332-0.614 1.431 0.051 2.847 0.388 4.248 1.014 1.398 0.634 2.702 1.663 3.91 3.085v0c1.208 1.422 2.32 2.917 3.337 4.483 1.02 1.558 1.973 3.136 2.861 4.737zM93.913 39.218l-5.258-9.474-4.4 2.442c-0.912 0.506-1.821 1.131-2.726 1.873-0.905 0.743-1.654 1.608-2.246 2.595-0.591 0.987-0.912 2.107-0.961 3.359-0.052 1.261 0.328 2.623 1.141 4.086v0c1.269 2.287 2.699 3.648 4.289 4.084 1.59 0.435 3.369 0.107 5.336-0.986v0c1.375-0.763 2.486-1.86 3.335-3.292 0.858-1.429 1.354-2.992 1.49-4.687z" fill="#35185a" data-fill-palette-color="accent"></path><path d="M154.048 2.098l-0.954 9.844c-1.416-0.559-3.164-0.967-5.243-1.223v0c-1.875-0.182-3.762-0.14-5.66 0.126-1.891 0.266-3.434 0.866-4.627 1.798v0l-1.621 16.724-0.015 0.162-1.499 15.47-9.46-0.917 4.272-44.082 8.448 0.819 0.572 4.63c0.858-0.7 1.745-1.322 2.663-1.866 0.924-0.544 1.979-0.955 3.163-1.235 1.185-0.28 2.566-0.449 4.144-0.507 1.584-0.051 3.523 0.035 5.817 0.257z" fill="#35185a" data-fill-palette-color="accent"></path><path d="M194.867 22.857l-23.481 37.552-8.118-5.077 23.481-37.551zM203.091 11.335v0c-0.834 1.333-2 2.162-3.498 2.489-1.508 0.328-2.925 0.077-4.253-0.753v0c-1.333-0.834-2.161-2.002-2.482-3.507-0.332-1.502-0.095-2.897 0.709-4.184v0c0.834-1.333 2.01-2.172 3.529-2.517 1.513-0.349 2.913-0.121 4.2 0.684v0c1.327 0.83 2.168 2.003 2.522 3.52 0.349 1.513 0.106 2.936-0.727 4.268z" fill="#35185a" data-fill-palette-color="accent"></path><path d="M185.243 72.03v0l7.497 0.445c-0.135 1.273-0.132 2.691 0.009 4.253 0.15 1.565 0.754 3.309 1.814 5.233v0c1.389 2.523 2.863 4.28 4.421 5.271 1.562 0.997 3.1 1.078 4.614 0.245v0c1.104-0.608 1.762-1.507 1.972-2.699 0.211-1.191 0.208-2.551-0.007-4.081-0.212-1.523-0.498-3.125-0.859-4.806-0.358-1.69-0.556-3.329-0.595-4.917v0c-0.058-3.14 0.293-5.708 1.051-7.703 0.749-1.998 2.293-3.641 4.632-4.929v0c1.923-1.059 3.842-1.593 5.755-1.602 1.908-0.006 3.709 0.364 5.403 1.11 1.691 0.74 3.244 1.796 4.657 3.169 1.413 1.373 2.587 2.908 3.522 4.605v0c1.261 2.292 2.181 4.531 2.759 6.72 0.581 2.194 0.788 4.502 0.62 6.922v0l-7.184 0.462c0.025-1.809-0.255-3.596-0.84-5.362-0.589-1.772-1.311-3.436-2.168-4.991v0c-0.935-1.698-2.05-2.832-3.346-3.403-1.302-0.567-2.755-0.41-4.358 0.473v0c-1.241 0.683-1.969 1.664-2.186 2.944-0.219 1.289-0.214 2.794 0.016 4.517 0.232 1.729 0.516 3.545 0.852 5.448 0.334 1.913 0.46 3.8 0.379 5.663-0.078 1.868-0.506 3.613-1.285 5.233-0.776 1.626-2.173 2.995-4.191 4.105v0c-1.971 1.085-3.908 1.641-5.812 1.668-1.894 0.03-3.689-0.356-5.382-1.156-1.694-0.8-3.248-1.944-4.663-3.432-1.424-1.49-2.678-3.221-3.763-5.192v0c-0.657-1.193-1.228-2.314-1.712-3.363-0.484-1.048-0.878-2.116-1.182-3.201-0.298-1.089-0.483-2.24-0.556-3.454-0.076-1.219-0.037-2.618 0.116-4.195z" fill="#35185a" data-fill-palette-color="accent"></path><path d="M79.598 177.227l-12.38-26.742-18.301 8.473 11.248 24.297-6.475 2.997-11.248-24.297-26.189 12.124-4.458-9.631 58.142-26.915 16.838 36.372z" fill="#35185a" data-fill-palette-color="accent"></path><path d="M101.329 217.151l-5.304 9.97-0.329 0.619c-0.216 0.407-0.509 1.022-0.879 1.847-0.372 0.815-0.699 1.674-0.979 2.577-0.28 0.902-0.433 1.773-0.457 2.612-0.018 0.842 0.198 1.518 0.65 2.026v0l-5.195 3.834c-0.664-0.353-1.284-0.883-1.86-1.588-0.58-0.7-1.064-1.514-1.453-2.442-0.395-0.932-0.65-1.873-0.766-2.825-0.119-0.946-0.089-1.897 0.091-2.854v0c-0.82 0.677-1.877 1.147-3.169 1.412-1.286 0.268-2.649 0.399-4.089 0.393-1.437-0.012-2.891-0.214-4.364-0.606-1.47-0.383-2.767-0.873-3.892-1.472v0c-1.741-0.926-3.294-2.048-4.658-3.364-1.364-1.317-2.391-2.814-3.079-4.493-0.682-1.675-0.919-3.54-0.709-5.593 0.207-2.062 0.962-4.32 2.267-6.773v0c1.254-2.357 2.835-4.126 4.745-5.305 1.913-1.186 3.942-1.914 6.089-2.184 2.138-0.267 4.349-0.139 6.634 0.386 2.285 0.524 4.45 1.331 6.497 2.419v0l6.524 3.47c1.333-2.507 2.266-4.571 2.798-6.191 0.532-1.621 0.674-2.942 0.427-3.963-0.244-1.013-0.767-1.847-1.569-2.505-0.802-0.657-1.816-1.311-3.043-1.964v0c-1.125-0.598-2.262-1.023-3.41-1.272-1.149-0.25-2.247-0.408-3.294-0.474-1.05-0.06-2.017-0.033-2.899 0.081-0.885 0.12-1.549 0.228-1.99 0.323v0l-0.639-7.133c0.814-0.289 1.888-0.454 3.223-0.496 1.338-0.048 2.794 0.051 4.367 0.296 1.579 0.249 3.221 0.647 4.927 1.193 1.711 0.549 3.413 1.274 5.106 2.175v0c1.532 0.815 2.945 1.766 4.239 2.854 1.298 1.082 2.357 2.301 3.177 3.659 0.824 1.352 1.362 2.866 1.614 4.542 0.258 1.68 0.089 3.513-0.507 5.499v0c-0.593 1.98-1.31 3.913-2.152 5.798-0.839 1.88-1.735 3.717-2.69 5.512zM85.185 225.293l5.633-10.59-4.909-2.611c-1.023-0.544-2.151-1.014-3.384-1.409-1.242-0.392-2.497-0.565-3.766-0.518-1.274 0.044-2.507 0.42-3.698 1.13-1.197 0.706-2.232 1.879-3.104 3.519v0c-1.362 2.561-1.768 4.709-1.217 6.445 0.55 1.736 1.926 3.189 4.128 4.36v0c1.538 0.818 3.227 1.191 5.069 1.119 1.842-0.072 3.591-0.554 5.248-1.445z" fill="#35185a" data-fill-palette-color="accent"></path><path d="M152.224 192.388l1.17 10.896c-1.667-0.291-3.656-0.34-5.965-0.147v0c-2.075 0.223-4.107 0.69-6.096 1.401-1.996 0.705-3.539 1.699-4.628 2.982v0l1.987 18.505 0.019 0.172 1.838 17.111-10.461 1.123-5.235-48.745 9.338-1.003 1.661 4.893c0.776-0.963 1.602-1.838 2.478-2.628 0.875-0.796 1.923-1.478 3.143-2.045 1.22-0.567 2.684-1.058 4.392-1.474 1.7-0.421 3.819-0.768 6.359-1.041z" fill="#35185a" data-fill-palette-color="accent"></path><path d="M170.411 179.787l25.48 41.884-9.058 5.511-25.48-41.884zM163.091 165.917v0c0.905 1.488 1.148 3.054 0.728 4.697-0.426 1.647-1.38 2.922-2.862 3.823v0c-1.488 0.905-3.054 1.148-4.697 0.728-1.653-0.422-2.916-1.351-3.79-2.787v0c-0.902-1.482-1.148-3.061-0.74-4.737 0.408-1.676 1.33-2.951 2.766-3.824v0c1.482-0.902 3.061-1.148 4.737-0.741 1.67 0.412 2.956 1.359 3.858 2.841z" fill="#35185a" data-fill-palette-color="accent"></path><path d="M216.893 192.7v0l-3.809-7.405c1.289-0.585 2.639-1.385 4.049-2.402 1.405-1.02 2.725-2.578 3.962-4.673v0c1.622-2.749 2.467-5.146 2.533-7.193 0.067-2.046-0.726-3.556-2.377-4.531v0c-1.196-0.706-2.422-0.823-3.676-0.351-1.254 0.472-2.548 1.238-3.883 2.3-1.329 1.065-2.697 2.244-4.106 3.537-1.399 1.291-2.847 2.404-4.343 3.338v0c-2.955 1.821-5.597 2.937-7.925 3.349-2.328 0.412-4.768-0.134-7.318-1.639v0c-2.095-1.236-3.681-2.763-4.758-4.579-1.082-1.819-1.749-3.743-2-5.771-0.247-2.034-0.116-4.109 0.393-6.225 0.512-2.121 1.314-4.107 2.406-5.957v0c1.471-2.492 3.089-4.633 4.854-6.424 1.762-1.785 3.838-3.283 6.227-4.493v0l4.495 6.584c-1.731 1-3.275 2.277-4.632 3.828-1.351 1.556-2.527 3.182-3.529 4.881v0c-1.092 1.85-1.543 3.555-1.354 5.114 0.193 1.554 1.161 2.845 2.906 3.876v0c1.348 0.796 2.696 0.938 4.044 0.427 1.346-0.52 2.775-1.376 4.289-2.568 1.514-1.192 3.085-2.487 4.714-3.887 1.631-1.39 3.357-2.575 5.178-3.553 1.821-0.979 3.726-1.554 5.716-1.726 1.984-0.175 4.073 0.385 6.267 1.68v0c2.148 1.268 3.77 2.799 4.866 4.595 1.1 1.79 1.745 3.717 1.935 5.781 0.196 2.067-0.017 4.196-0.64 6.385-0.617 2.193-1.56 4.363-2.828 6.511v0c-0.765 1.296-1.509 2.47-2.232 3.522-0.723 1.052-1.521 2.03-2.391 2.932-0.865 0.906-1.857 1.733-2.976 2.482-1.116 0.758-2.469 1.51-4.057 2.255z" fill="#35185a" data-fill-palette-color="accent"></path><path d="M3.833 121.129c0-13.517 10.958-24.475 24.474-24.474 13.517 0 24.475 10.958 24.475 24.474 0 13.517-10.958 24.475-24.475 24.475-13.517 0-24.475-10.958-24.474-24.475z" fill="#35185a" data-fill-palette-color="accent"></path><path d="M194.631 121.129c0-13.517 10.958-24.475 24.475-24.474 13.517 0 24.475 10.958 24.475 24.474 0 13.517-10.958 24.475-24.475 24.475-13.517 0-24.475-10.958-24.475-24.475z" fill="#35185a" data-fill-palette-color="accent"></path></g><g id="text-1"></g></svg></g></svg></g></svg></g><defs></defs></svg><rect width="395.52" height="133.6526352321541" fill="none" stroke="none" visibility="hidden"></rect></g></svg></g></svg>